<svg width="296" height="154" viewBox="0 0 296 154" fill="none" xmlns="http://www.w3.org/2000/svg">
<path d="M166.744 138.282C170.592 144.949 165.78 153.281 158.083 153.281H128.155C124.582 153.281 121.28 151.374 119.494 148.279L96.3731 108.216C92.5246 101.547 82.8997 101.547 79.051 108.216L55.9279 148.279C54.1417 151.374 50.8401 153.281 47.2669 153.281H17.339C9.64181 153.281 4.83046 144.949 8.67781 138.282L79.051 16.3399C82.8996 9.67098 92.5249 9.67105 96.3734 16.34L166.744 138.282Z" fill="#2376F3"/>
<path d="M270.494 107.726C266.879 104.108 261.154 103.982 256.434 105.953C253.729 107.082 250.867 107.836 247.927 108.181C241.989 108.879 235.976 107.882 230.58 105.306C225.185 102.73 220.628 98.6795 217.435 93.6224C214.243 88.5653 212.546 82.708 212.54 76.7269C212.533 70.7458 214.218 64.8849 217.4 59.8211C220.582 54.7574 225.13 50.6973 230.52 48.1098C235.91 45.5223 241.922 44.5129 247.861 45.1983C250.808 45.5384 253.678 46.2889 256.39 47.4166C261.106 49.3769 266.819 49.2455 270.429 45.6334L288.14 27.9096C292.164 23.8832 292.047 17.2536 287.362 14.0203C274.744 5.31112 259.704 0.586358 244.211 0.609705C202.217 0.609705 168.167 34.6752 168.167 76.6987C168.167 118.722 202.217 152.788 244.211 152.788C259.732 152.809 274.796 148.065 287.425 139.325C292.102 136.088 292.215 129.465 288.195 125.441L270.494 107.726Z" fill="#2376F3"/>
</svg>
